<svg xmlns="http://www.w3.org/2000/svg" viewBox="0 0 48 48">
  <rect fill="#000" width="48" height="48" rx="8"/>
  <path fill="#25F4EE" d="M34.5,17.5c-2.5-1.5-4.5-4-4.5-7h-5v20c0,2.8-2.2,5-5,5s-5-2.2-5-5s2.2-5,5-5c0.5,0,1,0.1,1.5,0.2v-5.2c-0.5-0.1-1-0.1-1.5-0.1c-5.5,0-10,4.5-10,10s4.5,10,10,10c5.5,0,10-4.5,10-10V21c2,1.5,4.5,2.5,7,2.5v-5C35.9,18.5,35.2,18,34.5,17.5z"/>
  <path fill="#FE2C55" d="M36.5,17.5c-2.5-1.5-4.5-4-4.5-7h-5v20c0,2.8-2.2,5-5,5s-5-2.2-5-5s2.2-5,5-5c0.5,0,1,0.1,1.5,0.2v-5.2c-0.5-0.1-1-0.1-1.5-0.1c-5.5,0-10,4.5-10,10s4.5,10,10,10c5.5,0,10-4.5,10-10V21c2,1.5,4.5,2.5,7,2.5v-5C37.9,18.5,37.2,18,36.5,17.5z"/>
  <path fill="#fff" d="M35.5,17.5c-2.5-1.5-4.5-4-4.5-7h-5v20c0,2.8-2.2,5-5,5s-5-2.2-5-5s2.2-5,5-5c0.5,0,1,0.1,1.5,0.2v-5.2c-0.5-0.1-1-0.1-1.5-0.1c-5.5,0-10,4.5-10,10s4.5,10,10,10c5.5,0,10-4.5,10-10V21c2,1.5,4.5,2.5,7,2.5v-5C36.9,18.5,36.2,18,35.5,17.5z"/>
</svg>
