<svg xmlns="http://www.w3.org/2000/svg" viewBox="0 0 48 48">
  <path fill="#fff" d="M24,4C12.954,4,4,12.954,4,24c0,8.887,5.801,16.411,13.82,19.016h12.36C38.199,40.411,44,32.887,44,24C44,12.954,35.046,4,24,4z"/>
  <path fill="#455A64" d="M24,4C12.954,4,4,12.954,4,24c0,8.887,5.801,16.411,13.82,19.016C18.55,43.005,19.28,42.003,19.28,41.128c0-0.462-0.019-2.107-0.026-3.819c-5.618,1.219-6.803-2.376-6.803-2.376c-0.918-2.333-2.244-2.954-2.244-2.954c-1.834-1.252,0.139-1.227,0.139-1.227c2.028,0.143,3.095,2.083,3.095,2.083c1.802,3.086,4.728,2.194,5.88,1.678c0.182-1.305,0.705-2.195,1.283-2.699c-4.484-0.511-9.2-2.242-9.2-9.981c0-2.204,0.788-4.006,2.08-5.42c-0.209-0.51-0.901-2.563,0.197-5.343c0,0,1.696-0.543,5.555,2.07c1.611-0.448,3.34-0.672,5.058-0.68c1.716,0.008,3.445,0.232,5.058,0.68c3.856-2.613,5.55-2.07,5.55-2.07c1.1,2.78,0.408,4.833,0.199,5.343c1.294,1.414,2.078,3.216,2.078,5.42c0,7.758-4.722,9.465-9.218,9.966c0.725,0.624,1.37,1.854,1.37,3.737c0,2.699-0.025,4.871-0.025,5.532c0,0.539,0.359,1.167,1.387,0.97C38.199,40.411,44,32.887,44,24C44,12.954,35.046,4,24,4z"/>
</svg>
