<svg xmlns="http://www.w3.org/2000/svg" viewBox="0 0 48 48">
  <path fill="#D32F2F" d="M34.5,19c-0.4,0-0.7,0-1.1,0.1c0.5-1.1,0.8-2.3,0.8-3.6c0-4.4-3.6-8-8-8c-2.9,0-5.5,1.6-6.9,4c-0.3-0.1-0.6-0.1-0.9-0.1c-2.8,0-5,2.2-5,5c0,0.8,0.2,1.6,0.5,2.3c-5.3,1.3-9,5.4-9,10.3c0,6.6,7.2,12,16,12s16-5.4,16-12C36.9,23,36,20.8,34.5,19z"/>
  <path fill="#FF8A80" d="M34,12c-1.7,0-3,1.3-3,3c0,0.3,0,0.6,0.1,0.9c0.6-0.1,1.2-0.1,1.9-0.1c1.4,0,2.7,0.2,4,0.6C36.6,14.4,35.5,12,34,12z"/>
  <ellipse fill="#fff" cx="21" cy="29" rx="8" ry="5"/>
</svg>
