<svg xmlns="http://www.w3.org/2000/svg" viewBox="0 0 48 48">
  <path fill="#2196F3" d="M17.6,7.5c-2.5,0-4.5,2.4-4.5,5.3c0,2.9,2,5.3,4.5,5.3s4.5-2.4,4.5-5.3C22.1,9.9,20.1,7.5,17.6,7.5z"/>
  <path fill="#2196F3" d="M30.4,7.5c-2.5,0-4.5,2.4-4.5,5.3c0,2.9,2,5.3,4.5,5.3s4.5-2.4,4.5-5.3C34.9,9.9,32.9,7.5,30.4,7.5z"/>
  <path fill="#2196F3" d="M9.2,17.8c-2.3,0-4.2,2.6-4.2,5.9c0,3.3,1.9,5.9,4.2,5.9c2.3,0,4.2-2.6,4.2-5.9C13.4,20.5,11.5,17.8,9.2,17.8z"/>
  <path fill="#2196F3" d="M38.8,17.8c-2.3,0-4.2,2.6-4.2,5.9c0,3.3,1.9,5.9,4.2,5.9c2.3,0,4.2-2.6,4.2-5.9C43,20.5,41.1,17.8,38.8,17.8z"/>
  <path fill="#D32F2F" d="M24,21c-5.9,0-11.5,3.4-13.8,8.4c-1.5,3.2-1.7,6.4-0.3,8.9c1.4,2.6,4.4,4.2,8.1,4.2c2.4,0,4.3-0.5,6-1c1.7,0.5,3.6,1,6,1c3.7,0,6.7-1.6,8.1-4.2c1.4-2.5,1.2-5.7-0.3-8.9C35.5,24.4,29.9,21,24,21z"/>
</svg>
